<?xml version="1.0" standalone="no"?>
<!DOCTYPE svg PUBLIC "-//W3C//DTD SVG 20010904//EN"
 "http://www.w3.org/TR/2001/REC-SVG-20010904/DTD/svg10.dtd">
<svg version="1.0" xmlns="http://www.w3.org/2000/svg"
 width="112.000000pt" height="112.000000pt" viewBox="0 0 112.000000 112.000000"
 preserveAspectRatio="xMidYMid meet">
<metadata>
Created by potrace 1.14, written by Peter Selinger 2001-2017
</metadata>
<g transform="translate(0.000000,112.000000) scale(0.100000,-0.100000)"
fill="#000000" stroke="none">
<path d="M324 1063 c-20 -31 -46 -86 -57 -122 -16 -54 -28 -73 -67 -108 -56
-50 -90 -118 -115 -228 -15 -63 -26 -88 -52 -115 -26 -29 -33 -44 -33 -77 0
-98 36 -197 103 -285 20 -25 32 -50 27 -54 -4 -5 -11 -24 -15 -41 l-7 -33 446
0 446 0 -20 40 c-26 52 -25 93 6 202 46 158 34 329 -30 444 l-25 44 70 1 c128
3 114 -12 117 117 l3 113 -43 -2 c-75 -4 -186 -28 -262 -57 -41 -16 -80 -26
-87 -22 -8 4 -34 11 -59 15 -25 4 -54 9 -65 11 -11 2 -41 5 -67 5 -27 1 -48 3
-48 6 0 2 22 26 49 53 27 27 63 72 80 100 l31 50 -144 0 -144 0 -38 -57z"/>
</g>
</svg>
